
<svg version="1.1" viewBox="0 0 100 100" width="100%" fill="#444444" xmlns="http://www.w3.org/2000/svg">
  <path d="M1.95899 76.131C3.75899 77.548 7.18399 78.996 10.077 79.527C12.704 80.028 17.102 80.028 20.054 79.497L21.206 79.291L20.97 81.031C20.822 81.976 20.763 83.6 20.792 84.6029C20.851 86.729 20.94 86.671 17.249 87.024C10.165 87.644 5.26599 84.869 1.54499 78.169C0.571989 76.368 0.217989 75.246 0.660989 75.246C0.748989 75.246 1.33899 75.66 1.95899 76.131Z" />
  <path d="M46.71 48.354C47.359 49.0039 53.116 51.631 55.684 52.5169C57.219 53.019 59.816 53.6379 61.44 53.904C63.064 54.14 63.039 54.174 65.042 54.4649C69.498 55.11 68.79 62.257 68.909 78.257L68.996 94.434L65.365 94.434L61.706 94.434L61.233 92.367C59.993 87.1719 57.337 83.984 53.41 82.921C51.964 82.567 51.905 82.36 52.791 81.1499C53.617 79.9989 53.647 78.0209 52.821 76.722L52.2 75.747L51.994 77.343C51.875 78.227 51.609 79.291 51.374 79.704C50.872 80.7059 49.278 82.095 48.068 82.597C47.094 83.01 46.858 83.269 47.3 84.279C47.544 84.835 47.613 84.868 49.278 84.6329C51.489 84.32 54.148 84.928 55.624 86.08C56.953 87.083 58.222 89.1499 58.931 91.451C59.327 92.729 59.818 94.4429 59.768 94.441C59.73 94.438 55.41 94.434 45.558 94.434C33.308 94.434 31.39 94.3739 30.12 93.9309C23.921 91.835 20.94 84.898 23.745 79.0249C25.102 76.161 29.087 70.7 32.482 67.01C37.117 62.0209 38.74 59.217 39.95 54.199L40.481 51.867L42.401 50.628C43.463 49.919 44.585 49.062 44.88 48.738C45.47 48.059 46.238 47.912 46.71 48.354Z"/>
  <path d="M65.004 20.27C65.004 22.199 66.569 23.7629 68.498 23.7629C69.426 23.7629 70.267 23.401 70.894 22.811C70.897 22.8829 70.898 22.954 70.898 23.026C70.898 26.106 68.4 28.604 65.321 28.604C62.241 28.604 59.743 26.106 59.743 23.026C59.743 19.947 62.241 17.449 65.321 17.449C65.661 17.449 65.995 17.48 66.319 17.539C65.519 18.179 65.004 19.164 65.004 20.27ZM25.398 33.477L25.633 35.514C25.929 37.964 26.637 39.675 28.024 41.21C30.859 44.3399 36.674 45.225 39.832 43.011C40.836 42.303 40.836 42.5689 39.862 43.867C38.888 45.1669 36.466 46.524 34.696 46.761C32.895 47.027 30.563 46.346 28.644 45.078C25.988 43.277 24.541 39.1159 25.161 35.041L25.398 33.477ZM88.331 6.23097C87.977 7.08695 87.682 7.32295 86.915 7.44096C86.383 7.60597 84.229 8.03096 82.103 8.50395C79.28 9.13096 77.262 9.50697 74.635 9.62495C70.473 9.83195 69.351 9.62495 64.245 7.91395C58.753 6.05397 55.624 5.49296 50.517 5.49296C45.47 5.49296 42.401 6.08396 38.68 7.79496C29.412 12.046 22.918 21.5809 21.707 32.739C21.235 37.1679 21.944 42.097 23.537 45.196C24.482 47.0549 26.639 49.1759 28.496 50.067C29.689 50.6379 31.786 50.906 33.397 50.89C39.301 50.89 43.316 48.8269 45.323 44.9299C46.592 42.4219 46.976 40.4439 46.976 36.222C46.976 33.684 47.064 32.415 47.241 32.8269C48.452 35.9259 48.658 41.329 47.714 44.104C47.389 45.048 47.124 45.993 47.124 46.2C47.124 46.6719 53.647 49.859 56.658 50.864C60.761 52.221 63.654 52.606 68.377 52.428C72.243 52.311 72.893 52.221 75.313 51.365C86.502 47.351 95.709 37.6759 97.364 24.621C97.848 20.807 97.836 15.854 97.394 14.377C97.098 13.404 97.128 13.2279 97.749 12.6669C98.811 11.662 99.372 10.2449 99.372 8.56297C99.372 5.93495 98.132 3.98695 95.859 3.04295C92.996 1.86195 89.543 3.30897 88.331 6.23097Z" />
</svg>
