<svg xmlns="http://www.w3.org/2000/svg" viewBox="0 0 100 100">
  <defs>
    <linearGradient id="a" x1="224.785" x2="348.066" y1="257.754" y2="133.458" gradientTransform="matrix(.27496 0 0 -.26273 .5896 97.8677)" gradientUnits="userSpaceOnUse">
      <stop offset=".21" stop-color="#f15a24"/>
      <stop offset=".6841" stop-color="#fbb03b"/>
    </linearGradient>
    <linearGradient id="b" x1="133.946" x2="10.6653" y1="106.426" y2="230.721" gradientTransform="matrix(.27496 0 0 -.26273 .5896 97.8677)" gradientUnits="userSpaceOnUse">
      <stop offset=".21" stop-color="#ed1e79"/>
      <stop offset=".8929" stop-color="#522785"/>
    </linearGradient>
  </defs>
  <g fill-rule="evenodd">
    <path fill="url(#a)" d="M75.269 26.406c-5.4993 0-11.5209 2.8638-17.8725 8.5124-2.9971 2.6535-5.6367 5.5435-7.5614 7.8292 0 0 3.0795 3.3892 6.4616 7.0411 1.8422-2.2069 4.4543-5.202 7.5064-7.9081 5.6367-5.0443 9.3212-6.0689 11.4384-6.0689 7.9188 0 14.3529 6.3579 14.3529 14.2135 0 7.7767-6.4341 14.1347-14.3529 14.2135-.385 0-.8249-.0525-1.3748-.1576 2.3096 1.0246 4.8118 1.7602 7.1489 1.7602 14.518 0 17.3776-9.5895 17.5425-10.2726.4125-1.7603.66-3.5993.66-5.491-.0275-13.0575-10.751-23.6717-23.9491-23.6717Z"/>
    <path fill="url(#b)" d="M24.5387 73.6443c5.4992 0 11.5208-2.8637 17.8724-8.5123 2.9971-2.6536 5.6367-5.5436 7.5615-7.8293 0 0-3.0796-3.3892-6.4616-7.0411-1.8423 2.2069-4.4544 5.202-7.5065 7.9081-5.6367 4.9918-9.3486 6.069-11.4383 6.069-7.9189 0-14.353-6.358-14.353-14.2135 0-7.7767 6.4341-14.1347 14.353-14.2135.3849 0 .8248.0525 1.3748.1576-2.3097-1.0246-4.8118-1.7603-7.149-1.7603-14.518-.0263-17.3776 9.5633-17.5425 10.2726-.4125 1.7603-.66 3.5994-.66 5.491 0 13.0576 10.7235 23.6717 23.9492 23.6717Z"/>
    <path fill="#29abe2" d="M35.5921 42.0908c-1.5948-1.4712-9.3487-7.4877-16.7726-7.6979-13.2531-.3152-17.13 8.8802-17.4875 10.0625C3.889 34.1565 13.3478 26.4586 24.5662 26.406c9.1562 0 18.4223 8.5912 25.2689 16.3416l.0275-.0262s3.0795 3.3891 6.4615 7.041c0 0 3.8495 4.335 7.9189 8.1446 1.5948 1.4713 9.3212 7.4089 16.7451 7.6191 13.6106.3678 17.3776-9.3531 17.57-10.0888-2.5021 10.3778-11.9882 18.1019-23.2616 18.1545-9.1562 0-18.4224-8.5912-25.2965-16.3416 0 .0262-.0274.0262-.0274.0525 0 0-3.0796-3.3892-6.4616-7.0411.0275 0-3.822-4.3612-7.9189-8.1708ZM1.332 44.5605c0-.0263 0-.0526.0275-.0789-.0275.0263-.0275.0526-.0275.0789Z"/>
  </g>
</svg>