<svg xmlns="http://www.w3.org/2000/svg" viewBox="0 0 100 100">
  <path fill-rule="evenodd" d="M79.3701 6.0518 58.9705 36.4316c-1.4106 2.0689 1.3021 4.5734 3.2553 2.8312l20.0741-17.5312c.5425-.4355 1.3021-.1088 1.3021.6534v54.7711c0 .7622-.9766 1.0889-1.4107.5444L21.4266 4.7451c-1.9531-2.3956-4.7743-3.7022-7.9211-3.7022h-2.1702C5.6929 1.0429 1.027 5.725 1.027 11.4962v77.0933c0 5.7711 4.6659 10.4534 10.4168 10.4534 3.5808 0 6.9446-1.8512 8.8977-5.0089l20.3996-30.38c1.4106-2.0689-1.3021-4.5734-3.2552-2.8311L17.4118 78.2451c-.5425.4355-1.3021.1089-1.3021-.6534V22.9295c0-.7622.9766-1.0889 1.4106-.5444L78.285 95.3406c1.9532 2.3956 4.8829 3.7023 7.9212 3.7023h2.1701c5.751 0 10.4168-4.6823 10.4168-10.4534V11.4962c0-5.7711-4.6658-10.4533-10.4168-10.4533-3.6893 0-7.053 1.851-9.0062 5.0089Z"/>
</svg>