<svg xmlns="http://www.w3.org/2000/svg" viewBox="0 0 100 100">
  <path fill="#8247e5" fill-rule="evenodd" d="M74.7591 33.5712c-1.7623-1.007-4.0281-1.007-6.0422 0l-14.0985 8.3081-9.5668 5.2869-13.8468 8.308c-1.7623 1.0071-4.0281 1.0071-6.0422 0L14.337 48.9285c-1.7623-1.007-3.0211-3.0211-3.0211-5.2869v-12.588c0-2.014 1.007-4.0281 3.0211-5.2869l10.8256-6.294c1.7623-1.007 4.0282-1.007 6.0422 0l10.8257 6.5458c1.7623 1.007 3.0211 3.0211 3.0211 5.2869v8.308l9.5668-5.5387v-8.5598c0-2.014-1.007-4.0281-3.0211-5.2869L31.4566 8.3953c-1.7623-1.007-4.0281-1.007-6.0422 0L4.7702 20.4798c-2.0141 1.007-3.0211 3.0211-3.0211 5.0351v23.6654c0 2.014 1.007 4.0281 3.021 5.2869l20.3925 11.8327c1.7623 1.007 4.0282 1.007 6.0422 0l13.8468-8.0563 9.5668-5.5387 13.8468-8.0563c1.7623-1.007 4.0281-1.007 6.0422 0l10.8256 6.294c1.7623 1.007 3.0211 3.0211 3.0211 5.2869v12.588c0 2.014-1.007 4.0281-3.0211 5.2869l-10.5739 6.294c-1.7623 1.007-4.0281 1.007-6.0422 0l-10.8256-6.294c-1.7623-1.007-3.0211-3.0211-3.0211-5.2869v-8.0563l-9.5669 5.5387v8.308c0 2.0141 1.0071 4.0282 3.0211 5.2869l20.3925 11.8327c1.7623 1.007 4.0282 1.007 6.0422 0l20.3925-11.8327c1.7623-1.007 3.0211-3.0211 3.0211-5.2869V50.6908c0-2.0141-1.007-4.0281-3.0211-5.2869L74.7591 33.5712Z"/>
</svg>