<svg xmlns="http://www.w3.org/2000/svg" stroke-miterlimit="10" viewBox="0 0 130 100">
  <g>
    <path fill="#9e616a" d="M94.8494 94.5862h-2.5736l-1.2247-9.9263h3.7983v9.9263Z"/>
    <path fill="#2f2e41" d="M96.2077 99.0451h-1.8456l-.3294-1.7425-.8437 1.7425h-4.8948a1.1004 1.1004 0 0 1-.6253-2.0058l3.9089-2.6996v-1.7616l4.1115.2454.5184 6.2216Z"/>
    <path fill="#9e616a" d="m110.139 91.3384-2.066 1.5356-6.905-7.2345 3.047-2.2666 5.924 7.9655Z"/>
    <path fill="#2f2e41" d="m113.889 94.1059-1.481 1.1013-1.304-1.2016.363 1.9016-3.928 2.9209c-.386.2873-.915.29-1.304.0066a1.1022 1.1022 0 0 1-.395-1.2431l1.526-4.4988-1.051-1.4135 3.446-2.2565 4.128 4.6831ZM97.8456 43.3716s4.8824 4.2186 2.6304 16.2446l-2.7509 11.7834 8.9699 14.8809-2.86 3.4794-11.6611-16.1068-4.2256-9.912-1.1857-17.6415 11.083-2.728Z"/>
    <path fill="#2f2e41" d="m90.2774 66.5657-.2937 4.5484.8987 19.3823 4.2293-.7366.8082-13.7999-5.6425-9.3942Z"/>
    <path fill="#ffb6b6" d="m36.0047 96.92 2.3014-.0001 1.0948-8.8769-3.3965.0002.0003 8.8768Z"/>
    <path fill="#2f2e41" d="M35.4177 96.1686h.6477l2.5291-1.0285 1.3555 1.0283h.0001c1.5952.0001 2.8883 1.2932 2.8884 2.8883v.0939l-7.4207.0003-.0001-2.9823Z"/>
    <path fill="#ffb6b6" d="m44.9232 95.4698 2.2448.5068 3.0233-8.4177-3.3131-.7481-1.955 8.659Z"/>
    <path fill="#2f2e41" d="m44.516 94.6075.6319.1427 2.6935-.4462 1.0956 1.3017h.0002c1.556.3515 2.5325 1.8976 2.1812 3.4536l-.0207.0916-7.2385-1.6344.6568-2.909ZM33.0899 42.6514c-1.079 3.2543-.965 6.7867.2593 10.578l.5234 21.3459s-.7798 13.9982 1.7364 18.924h3.6491l1.8068-20.2024.2269-13.56 7.8234 11.4401-4.983 21.992 4.4912.4015 8.086-23.8665-9.9765-23.1546-13.643-3.898Z"/>
    <path fill="#e6e6e6" d="M75.1726 33.3819c2.7912-2.5152 6.9428-3.7799 10.4253-2.3696a17.311 17.311 0 0 0-7.7792 8.9857c-.5544 1.475-1.0175 3.1733-2.3811 3.963-.8485.4914-1.9041.5154-2.8554.2782-.9514-.2373-1.8234-.7128-2.6835-1.1836l-.2447-.0055c1.0986-3.593 2.7275-7.153 5.5186-9.6682Z"/>
    <path fill="#fff" d="M85.5784 31.0887a14.7967 14.7967 0 0 0-8.2317 3.8876 6.3713 6.3713 0 0 0-1.2512 1.5557 3.6547 3.6547 0 0 0-.4224 1.8764c.0151.6085.1009 1.2291-.0321 1.8306a2.2374 2.2374 0 0 1-1.1132 1.4525c-.6815.3918-1.4631.5153-2.2317.6095-.8534.1046-1.7414.1997-2.4801.6784-.0895.058-.1743-.0843-.0849-.1422 1.2852-.8328 2.9115-.5298 4.2934-1.0855.6448-.2594 1.2154-.7146 1.4174-1.4029.1766-.6019.0886-1.242.068-1.8579a3.8981 3.8981 0 0 1 .3447-1.8501 5.8908 5.8908 0 0 1 1.1867-1.5981 14.357 14.357 0 0 1 3.6481-2.6116 15.0597 15.0597 0 0 1 4.8875-1.508c.1054-.0136.1063.1521.0015.1656Z"/>
    <path fill="#fff" d="M78.0364 34.2479c-.6311-.8858-.5274-2.0983.2447-2.8641.0759-.0748.1957.0396.1197.1145-.7206.7121-.815 1.8431-.2223 2.6647.0623.0865-.0803.1709-.1421.0849ZM75.6248 38.1009a4.2785 4.2785 0 0 0 3.0575-.6122c.0898-.0577.1745.0846.0849.1422a4.4505 4.4505 0 0 1-3.1829.6306c-.1051-.0189-.064-.1794.0405-.1606ZM82.2341 31.8726c.1699.3871.5231.6628.9398.7338.1053.0176.0641.178-.0405.1605a1.4078 1.4078 0 0 1-1.0415-.8094.0858.0858 0 0 1 .0287-.1136.0832.0832 0 0 1 .1135.0287Z"/>
    <path fill="#e6e6e6" d="M89.4327 43.1418c-.0661-.0091-.1321-.0182-.1991-.0263a16.5606 16.5606 0 0 0-2.681-.1362 7.2408 7.2408 0 0 0-.2086.0061 17.4456 17.4456 0 0 0-6.2593 1.4408 16.9395 16.9395 0 0 0-2.2733 1.2077c-1.0027.6348-2.0393 1.4029-3.1601 1.6618a2.8897 2.8897 0 0 1-.3542.0631l-4.6309-4.0097c-.006-.0144-.0129-.0278-.0189-.0423l-.1922-.1516c.0358-.0263.0735-.0529.1093-.0792.0207-.0153.0424-.0298.0631-.0451.0141-.01.0283-.0199.0405-.0297.0047-.0033.0094-.0066.0132-.0089.0122-.0098.0245-.0176.0358-.0263.2102-.1489.4219-.2965.6349-.443.0009-.001.0009-.001.0029-.0012a24.9067 24.9067 0 0 1 5.1875-2.7885c.055-.0208.1109-.0427.168-.0616.8256-.307 1.675-.546 2.5396-.7146a14.3005 14.3005 0 0 1 1.4322-.2001 11.8878 11.8878 0 0 1 3.7066.2626c2.4202.5613 4.6341 1.8903 5.9453 3.9629.0335.0531.0661.1052.0987.1593Z"/>
    <path fill="#fff" d="M89.3714 43.1916a14.7964 14.7964 0 0 0-8.9132-1.852 6.3723 6.3723 0 0 0-1.9357.4888 3.6546 3.6546 0 0 0-1.467 1.2439c-.3543.4949-.6593 1.0421-1.1278 1.4423a2.2379 2.2379 0 0 1-1.7633.4896c-.78-.0976-1.4784-.4696-2.1488-.8571-.7444-.4303-1.5107-.889-2.3887-.9515-.1064-.0076-.0884-.1722.0178-.1647 1.5276.1089 2.6437 1.33 4.0817 1.7182.671.1812 1.4006.1612 1.9763-.2667.5034-.3743.8184-.9383 1.1728-1.4425a3.9007 3.9007 0 0 1 1.3891-1.2697 5.8922 5.8922 0 0 1 1.9097-.5615 14.3569 14.3569 0 0 1 4.4852.1112 15.058 15.058 0 0 1 4.8103 1.7386c.0924.0526-.0067.1854-.0984.1331Z"/>
    <path fill="#fff" d="M81.4474 41.1732c.0295-1.0872.8422-1.9929 1.9198-2.1395.1056-.014.1323.1495.0266.1635-1.0041.1347-1.7603.9809-1.7818 1.9938-.0024.1065-.167.0881-.1646-.0178ZM77.2021 42.7977a4.2786 4.2786 0 0 0 2.8099 1.352c.1063.008.0884.1726-.0178.1647a4.4506 4.4506 0 0 1-2.9211-1.4129c-.0725-.0784.0569-.1817.129-.1038ZM86.2292 41.804a1.2566 1.2566 0 0 0 .3086 1.1517c.0734.0774-.0561.1807-.129.1038a1.408 1.408 0 0 1-.3443-1.2733.0858.0858 0 0 1 .0913-.0735.0833.0833 0 0 1 .0734.0913Z"/>
    <path fill="#e6e6e6" d="M8.093 96.7588c-.2173.8156-.7885 1.4948-1.4782 1.9895a5.0451 5.0451 0 0 1-.3448.2264c-.036.021-.072.0435-.1094.063a2.3726 2.3726 0 0 1-.1215.0674H2.7963c-.0585-.1184-.1155-.2383-.1724-.3568C1.234 95.8278.258 92.6764.4245 89.4665c.066-1.245.3276-2.4719.7751-3.6356.8905-2.3193 2.5157-4.3268 4.751-5.3373.0556-.0255.114-.051.171-.075-.018.0645-.036.1275-.054.192a16.6075 16.6075 0 0 0-.5067 2.6371 4.6593 4.6593 0 0 0-.0225.2084 17.3991 17.3991 0 0 0 .5577 6.4002c.0015.0045.003.0105.0045.015.1274.4603.2754.9136.4438 1.3598.132.3524.2743.7002.4303 1.042.6506 1.4348 1.5232 2.964 1.1184 4.4857Z"/>
    <path fill="#fff" d="M6.162 80.4861c-.0314.042-.0629.0825-.0944.1245a14.711 14.711 0 0 0-1.6671 2.8125 1.896 1.896 0 0 0-.066.15 14.664 14.664 0 0 0-1.1724 4.3837.2239.2239 0 0 0-.003.0315c-.0375.3538-.06.7107-.069 1.0675a6.369 6.369 0 0 0 .2144 1.985 3.563 3.563 0 0 0 .8186 1.4122c.0375.0405.075.081.1155.12.03.0315.063.0629.0944.0929.3028.2894.6342.5577.919.8681.1306.1392.2485.2897.3524.4498a2.2343 2.2343 0 0 1 .2398 1.814c-.2039.7587-.6701 1.3988-1.1469 2.009-.2384.3059-.4842.6147-.6971.9415-.078.117-.15.2354-.216.3569h-.1888c.063-.1215.132-.2399.2069-.3569.5472-.862 1.3253-1.6026 1.7286-2.5517.2729-.6401.3553-1.3658.0105-1.9939a2.6509 2.6509 0 0 0-.3643-.5068c-.2744-.3103-.6027-.5757-.901-.8561a4.9896 4.9896 0 0 1-.219-.2173 3.7432 3.7432 0 0 1-.8455-1.3344 5.8813 5.8813 0 0 1-.2909-1.9685c0-.4257.0225-.8545.0645-1.2803a6.7155 6.7155 0 0 1 .0165-.1649 15.1076 15.1076 0 0 1 2.949-7.3808c.03-.042.0615-.0824.093-.1229.0644-.084.1828.033.1184.1154Z"/>
    <path fill="#fff" d="M3.0622 88.0535c-1.0725-.1802-1.8566-1.1108-1.8522-2.1983a.0829.0829 0 0 1 .1656-.0036c-.006 1.013.727 1.8794 1.7271 2.0413.1052.0172.064.1776-.0405.1606ZM4.0815 92.4832a4.2788 4.2788 0 0 0 1.729-2.5949c.0227-.1042.1833-.0636.1606.0405a4.4504 4.4504 0 0 1-1.8047 2.6966c-.0877.0609-.1721-.0816-.085-.1422ZM4.3509 83.4056a1.2564 1.2564 0 0 0 1.1834-.1457c.0869-.062.1712.0806.0849.1422a1.4083 1.4083 0 0 1-1.3089.1641.0857.0857 0 0 1-.06-.1006.0832.0832 0 0 1 .1006-.06Z"/>
    <path fill="#e6e6e6" d="M17.4093 86.2837c-.0524.0404-.1064.0809-.1589.1229a16.5453 16.5453 0 0 0-1.9925 1.7991 7.0334 7.0334 0 0 0-.1424.1514l-.0015.0015a17.445 17.445 0 0 0-3.3973 5.4183l-.0045.0134c-.0015.0045-.003.0075-.0045.012a17.175 17.175 0 0 0-.7541 2.4618c-.1829.8186-.3328 1.6956-.6192 2.4842a5.2801 5.2801 0 0 1-.1424.3568H3.5264c.0225-.1184.0465-.2383.0705-.3568a24.0323 24.0323 0 0 1 1.5802-5.0524c.024-.054.048-.1079.075-.1619a16.234 16.234 0 0 1 1.2908-2.3013.0016.0016 0 0 1 .0004-.0011c.0003-.0003.0007-.0005.001-.0004.2702-.3988.5605-.7836.8696-1.153a11.8629 11.8629 0 0 1 2.8066-2.4347c.006-.0045.0135-.0075.0195-.012 2.1049-1.3059 4.5997-1.928 6.9849-1.3898h.0015c.0615.0135.1215.027.1829.042Z"/>
    <path fill="#fff" d="M17.4019 86.3631a4.463 4.463 0 0 0-.1515.0435 14.7834 14.7834 0 0 0-3.0239 1.2399c-.048.0255-.096.0525-.144.0794a14.7345 14.7345 0 0 0-3.5666 2.7871.0046.0046 0 0 0-.0015.003c-.012.012-.0255.0255-.036.0375a13.484 13.484 0 0 0-.6897.8021 6.4141 6.4141 0 0 0-1.0225 1.7136 3.5497 3.5497 0 0 0-.1964 1.6207c.0045.0555.012.1095.0195.1649.006.0435.012.087.0195.132.099.6011.2699 1.2038.222 1.817a2.2352 2.2352 0 0 1-.9011 1.5937 3.5654 3.5654 0 0 1-.5518.3508 5.5275 5.5275 0 0 1-.865.3569h-.5892c.0794-.0225.1574-.045.2369-.0675a7.2293 7.2293 0 0 0 .829-.2894 4.0263 4.0263 0 0 0 .4498-.2218c.6027-.3464 1.105-.8771 1.2099-1.5862.0915-.6207-.0854-1.2414-.1904-1.8486-.018-.1049-.0345-.2084-.0435-.3118a3.6639 3.6639 0 0 1 .1275-1.5682 5.8564 5.8564 0 0 1 .9535-1.7482c.2569-.3411.5311-.6689.8216-.982a4.1345 4.1345 0 0 1 .1124-.1214 15.1251 15.1251 0 0 1 3.6297-2.8081h.0015a14.8827 14.8827 0 0 1 3.1633-1.3103h.0015a5.644 5.644 0 0 1 .15-.0435c.1034-.027.1274.1365.0255.1649Z"/>
    <path fill="#fff" d="M10.3711 90.5384c-.7479-.7895-.8137-2.0047-.1554-2.8703.0648-.0846.1993.0121.1344.0968-.6147.8053-.551 1.9383.15 2.6697.0736.077-.0558.1804-.129.1038ZM8.518 94.689a4.2787 4.2787 0 0 0 2.9428-1.0308c.0809-.0696.1846.0595.1038.129a4.4503 4.4503 0 0 1-3.0645 1.0664c-.1067-.0041-.0883-.1687.0179-.1646ZM14.1984 87.6032c.222.3598.61.5838 1.0326.5962.1066.0028.0881.1674-.0179.1646a1.408 1.408 0 0 1-1.1438-.657.0857.0857 0 0 1 .0126-.1164.0834.0834 0 0 1 .1165.0126Z"/>
    <path fill="#ffb8b8" d="M68.8286 28.6925a1.7393 1.7393 0 0 1-2.6637.1256l-5.6672 2.4648.5521-3.1637 5.297-1.8555c.69-.5558 1.6865-.5076 2.3197.1121.6332.6196.7028 1.6149.1621 2.3167Z"/>
    <path fill="#e6e6e6" d="m65.0467 29.6803-13.1629 5.8633-.0282-.0101-15.0025-5.3461c-2.3199-1.2125-3.2918-4.0237-2.2161-6.4101a4.9362 4.9362 0 0 1 7.0445-2.1944l11.1646 6.7254 10.8262-1.4031 1.3744 2.7751Z"/>
    <path fill="#ccc" d="M129.746 99.2266a.1804.1804 0 0 1-.052.1263.1794.1794 0 0 1-.127.0521H.5894a.1784.1784 0 0 1 0-.3568H129.567a.179.179 0 0 1 .127.0521.1804.1804 0 0 1 .052.1263Z"/>
    <path fill="#e6e6e6" d="m47.3837 47.2331-13.2692-2.1224a2.5328 2.5328 0 0 1-1.4925-3.5451l.6017-1.2036-.2337-12.6456a9.3672 9.3672 0 0 1 4.5481-8.1939l1.294-.7737.6539-1.6607 6.03.1471.0175 2.178 2.1595 3.4435-.0001.0143-.1355 18.7425-.5951 1.9342.8999 2.2497-.4785 1.4357Z"/>
    <path fill="#ffb8b8" d="M37.5744 9.5443c0-3.0259 2.4529-5.4788 5.4788-5.4788 3.0259 0 5.4788 2.453 5.4788 5.4788 0 3.0259-2.4529 5.4788-5.4788 5.4788-3.0259 0-5.4788-2.4529-5.4788-5.4788Z"/>
    <path fill="#2f2e41" d="M37.348 10.7387c-.1634-.6885-.0883-1.6572.004-2.3504.2421-1.8172 1.2513-3.5449 2.7846-4.5682a2.0058 2.0058 0 0 1 .9992-.397c.3627-.0152.7559.179.8672.5245a1.798 1.798 0 0 1 1.0143-1.0059 3.1688 3.1688 0 0 1 1.4439-.1945 5.2768 5.2768 0 0 1 4.4022 3.1469c.1464.3476.5551-.9365.7405-.608.1704.3414.4677.6026.8282.7276.3633.1014.5109 1.5983.6538 1.2492a1.664 1.664 0 0 1-1.5907 2.3201c-.3698-.0138-.7234-.1498-1.0888-.2084-1.3066-.2093-2.6926.7381-2.9719 2.0316a3.5962 3.5962 0 0 0-.4731-1.0526 1.2173 1.2173 0 0 0-.9765-.5366c-.3718.014-.6985.257-.9397.5402-.2412.2832-.4224.6136-.6654.8953-.7129.8266-1.6772 2.7541-2.6933 2.6135-.8018-.1109-2.1153-2.1874-2.3385-3.1273Z"/>
    <path fill="#fff" d="M76.1721 34.901a1.0694 1.0694 0 0 0-.7207-1.1775l-14.7545-4.914a1.0697 1.0697 0 0 0-.4397-.0505l-3.6982.3497-2.1219.2013-3.9159.3701a1.0726 1.0726 0 0 0-.957.898L47.576 42.9974c-.0775.499.202.9849.6723 1.1688l14.9085 5.7547c.07.0272.1427.0467.2168.0582.108.0175.218.0184.3262.0025l9.6335-1.4278a1.0674 1.0674 0 0 0 .9029-.8994l1.9359-12.7534Z"/>
    <path fill="#6c63ff" d="m48.5863 43.2911 14.9084 5.7544a.1347.1347 0 0 0 .0685.0081l9.6322-1.4276a.1326.1326 0 0 0 .1132-.1127l1.9369-12.7535a.1356.1356 0 0 0-.0898-.1472l-.0992-.0336-14.6562-4.8794a.1047.1047 0 0 0-.0206-.0049.1331.1331 0 0 0-.0345-.0018l-9.0201.8535-.7157.0672a.1353.1353 0 0 0-.1192.1121l-1.9878 12.4188a.1345.1345 0 0 0 .0839.1466Z"/>
    <path fill="#2f2e41" d="m51.3252 30.5464 9.02-.8535a.1331.1331 0 0 1 .0345.0018.1047.1047 0 0 1 .0206.0049l14.6562 4.8794-3.866.4093-1.4469.1524-4.1169.435a.2916.2916 0 0 1-.0362-.0005c-.0073-.0022-.0146-.0044-.0234-.0067l-14.2419-5.0221Z"/>
    <path fill="#3f3d56" d="m48.2481 44.167 14.9084 5.7544c.0701.027.1431.0461.2175.0569.1079.0179.218.0192.3264.0041l9.6321-1.4276c.4668-.068.834-.4337.9038-.9001l1.9355-12.7537a1.078 1.078 0 0 0-.0627-.5572.9457.9457 0 0 0-.031-.0693 1.0484 1.0484 0 0 0-.3394-.4044 1.0715 1.0715 0 0 0-.2872-.1464l-.0175-.0062-14.7363-4.9081a1.337 1.337 0 0 0-.184-.0447 1.0575 1.0575 0 0 0-.257-.005l-3.6976.3485-2.1218.2024-3.9165.3698a1.0644 1.0644 0 0 0-.4525.1495.2072.2072 0 0 0-.0304.0182.199.199 0 0 0-.0195.0147 1.072 1.072 0 0 0-.4538.7142l-1.9894 12.4202a1.0786 1.0786 0 0 0 .6729 1.1698Zm1.5805-13.5467a.7945.7945 0 0 1 .1904-.4005.6901.6901 0 0 1 .1013-.0987.7962.7962 0 0 1 .3483-.1625.6134.6134 0 0 1 .0764-.0108l6.5943-.623 3.1431-.2991c.0214-.0025.0409-.0021.0606-.0032a.752.752 0 0 1 .1421.0105.6192.6192 0 0 1 .1266.0302l14.7538 4.9143c.0116.0041.0218.0081.0334.0123a.7816.7816 0 0 1 .3408.2479.7882.7882 0 0 1 .168.6215l-1.9371 12.755a.802.802 0 0 1-.6759.6749l-9.6337 1.4275a.8118.8118 0 0 1-.4082-.0466l-14.9086-5.7529a.81.81 0 0 1-.5036-.8765l1.988-12.4203Z"/>
    <path fill="#3f3d56" d="M49.9864 29.9305a.1309.1309 0 0 1 .0595-.0711c.0062-.0024.0126-.0063.0189-.0087a.131.131 0 0 1 .0935-.0016l.3104.1095 15.1596 5.3476 3.548-.3748 1.9854-.2094 4.2022-.4449.3758-.0394.0731-.0081a.1355.1355 0 0 1 .1467.1194.134.134 0 0 1-.0825.1383.1487.1487 0 0 1-.0371.01l-.5111.0535-4.1383.4375-1.4469.1524-4.1169.435a.2916.2916 0 0 1-.0362-.0005c-.0073-.0022-.0146-.0044-.0234-.0067l-15.4468-5.4474-.0525-.0186a.1022.1022 0 0 1-.0329-.0182.1365.1365 0 0 1-.0485-.1538Z"/>
    <path fill="#3f3d56" d="M63.4146 50.0174a.134.134 0 0 1-.1113-.1523l2.1764-14.4428a.134.134 0 0 1 .1524-.1125l.0012.0002a.134.134 0 0 1 .1114.1522L63.5682 49.905a.1339.1339 0 0 1-.1524.1125l-.0012-.0001ZM68.9313 49.1012l-1.4475.1527L69.177 34.931s1.9332-.35 1.9849-.2097c.0318.0838-2.2168 14.288-2.2306 14.3799Z"/>
    <path fill="#3f3d56" d="m50.0683 30.1023-.039 6.5317 11.563 4.406 4.1524-5.5778-15.6764-5.3599ZM75.7402 34.2379a.795.795 0 0 0-.3744-.2604l-14.7534-4.9141a.7701.7701 0 0 0-.1271-.031.7564.7564 0 0 0-.1425-.0107l.0239-.1495.1477-.1069 3.5035-2.5365 11.7001 3.5857.0203 4.0557.0019.3677Z"/>
    <path fill="#fff" d="M50.6576 40.5879a.2255.2255 0 0 1 .0488.0103l4.5268 1.4867a.225.225 0 0 1-.1403.4274l-4.5267-1.4867a.225.225 0 0 1 .0914-.4377Z"/>
    <path fill="#f2f2f2" d="M67.1226 66.1894c0-.9936.8054-1.7991 1.7991-1.7991.9936 0 1.799.8055 1.799 1.7991 0 .9936-.8054 1.7991-1.799 1.7991-.9937 0-1.7991-.8055-1.7991-1.7991ZM21.2459 72.786c0-.9936.8055-1.799 1.7991-1.799.9936 0 1.7991.8054 1.7991 1.799 0 .9936-.8055 1.7991-1.7991 1.7991-.9936 0-1.7991-.8055-1.7991-1.7991ZM58.7268 13.2663c0-.9936.8055-1.7991 1.7991-1.7991.9936 0 1.7991.8055 1.7991 1.7991 0 .9936-.8055 1.7991-1.7991 1.7991-.9936 0-1.7991-.8055-1.7991-1.7991Z"/>
    <path fill="#ffb8b8" d="M63.4777 43.2339a1.739 1.739 0 0 1-2.3849-1.193l-6.1486-.6212 2.0285-2.4896 5.5279.9716c.8736-.1474 1.7193.3819 1.9686 1.2321.2493.8501-.1767 1.7523-.9915 2.1001Z"/>
    <path fill="#e6e6e6" d="m59.6959 42.2462-14.349-1.322-.0197-.0227-10.4723-11.9993c-1.4308-2.1921-.9039-5.1195 1.2014-6.6752a4.9363 4.9363 0 0 1 7.2179 1.5306l6.45 11.3259 10.1297 4.07-.158 3.0927Z"/>
    <path fill="#2f2e41" d="M95.7111 19.1704c-.3564-2.6137-.8033-5.42-2.6468-7.3068a6.1991 6.1991 0 0 0-8.957.0927c-1.342 1.4316-1.9346 3.4418-1.9888 5.4032-.0543 1.9615.3826 3.9012.8672 5.8026a17.8838 17.8838 0 0 0 7.4641-1.4692c.5886-.2554 1.1677-.5443 1.7896-.7025.6219-.1583 1.0651.24 1.6436.5177l.3175-.608c.26.4837 1.0649.3403 1.3568-.1248.2919-.4651.228-1.0608.1538-1.6049Z"/>
    <path fill="#9e616a" d="m85.5453 33.7593-10.4761.2241c-.4484-.7752-1.4314-1.054-2.2199-.6297-.7886.4243-1.0975 1.3983-.6977 2.1995.3999.8013 1.3638 1.14 2.177.765 1.3894.079 12.2596 1.6218 12.908.6275.6582-1.0091 4.1716-4.5705 4.1716-4.5705l-2.7006-3.8447-3.1623 5.2288ZM83.176 16.8344c0-2.7184 2.2037-4.922 4.9221-4.922 2.7183 0 4.922 2.2036 4.922 4.922 0 2.7183-2.2037 4.922-4.922 4.922-2.7184 0-4.9221-2.2037-4.9221-4.922Z"/>
    <path fill="#3f3d56" d="M95.9814 26.3048c-.58-1.1543-.8618-2.5804-2.0984-2.9547-.835-.2527-4.2124.126-4.9734.5526-1.2659.7096-.1188 2.0393-.8656 3.2837-.8119 1.3527-3.0183 4.0674-3.8301 5.4201-.5582.9299 1.3219 3.6595 1.0201 4.7013-.3018 1.0417-.3163 2.211.1978 3.166.4601.8547-.2056 1.6109.2571 2.4643.4812.8874 1.0718 4.2057.6239 5.1105l-.2998.8996c2.9755.1748 5.4774-3.3799 8.4344-3.7544.7345-.093 1.4971-.2145 2.1023-.6408.8915-.628 1.2439-1.7675 1.4642-2.8355a23.8861 23.8861 0 0 0-2.0325-15.4127Z"/>
    <path fill="#9e616a" d="M100.443 38.4939c-.415-1.1313-1.1652-6.0774-1.1652-6.0774l-4.6962-.1377 2.296 5.6629-6.2654 8.771s.0116.0193.0327.0536a1.6568 1.6568 0 0 0-1.5632 2.6626 1.657 1.657 0 0 0 2.9529-.9017.1146.1146 0 0 0 .1437-.0247c.6971-.8749 8.6787-8.8773 8.2647-10.0086Z"/>
    <path fill="#3f3d56" d="M100.92 35.3702c-.431-1.8193-.865-3.6484-1.592-5.3711-.7267-1.7226-1.7671-3.3497-3.2304-4.5135-.4678-.3721-.9908-.7005-1.5773-.8162-.5864-.1157-1.2473.0138-1.6591.447-.6591.6932-.4608 1.8059-.2191 2.7313l2.1383 8.186 6.1756-.6545-.036-.009Z"/>
    <path fill="#2f2e41" d="M94.1292 17.5171c-.1813-1.1907-.3706-2.3914-.7965-3.5125-.4258-1.1212-1.1122-2.1713-2.0969-2.8064-1.559-1.0056-3.5775-.8116-5.3254-.2332-1.3517.4473-2.6713 1.1272-3.6245 2.2203-.9533 1.093-1.4887 2.6527-1.1341 4.0819l5.5935-1.3216-.2041.1443a4.503 4.503 0 0 1 2.4034 3.1323 4.6662 4.6662 0 0 1-.9843 3.8752l3.8148-1.3533c.7849-.2784 1.6249-.5992 2.0903-1.3134.5396-.828.4143-1.9255.2638-2.9136Z"/>
  </g>
</svg>